<svg width="77" height="25" viewBox="0 0 77 25" fill="none" xmlns="http://www.w3.org/2000/svg">
<path id="Subtract" fill-rule="evenodd" clip-rule="evenodd" d="M0 0.366932C5.31318 0.122311 9.12927 0 11.4483 0C15.7634 0 18.8603 0.489243 20.739 1.46773C22.422 2.34837 23.2635 3.684 23.2635 5.47463C23.2635 6.55096 22.9797 7.45606 22.4122 8.18993C21.8545 8.91401 20.9983 9.54024 19.8437 10.0686C21.2919 10.5579 22.4073 11.2526 23.1901 12.1528C24.2175 13.3368 24.7312 14.9611 24.7312 17.0257C24.7312 21.4778 21.287 23.831 14.3984 24.0854C13.4101 24.1246 12.642 24.1441 12.0941 24.1441C11.5461 24.1441 11.0716 24.1392 10.6704 24.1295C10.2692 24.1197 9.80932 24.105 9.29072 24.0854C8.78191 24.0756 8.22417 24.061 7.61751 24.0414C7.02064 24.0316 6.41398 24.012 5.79753 23.9827C5.18108 23.9631 4.57442 23.9436 3.97755 23.924C3.38067 23.9044 2.82293 23.8799 2.30433 23.8506C1.78574 23.831 1.32585 23.8163 0.924669 23.8066C0.52349 23.787 0.215267 23.7674 0 23.7479V0.366932ZM27.7694 0.366932H44.6336V7.00107H36.8987V9.17331H44.6336V15.5726H36.8987V23.8066H27.7694V0.366932ZM47.2022 0.366932H50.5633L61.8941 11.008L73.5332 0.366932H76.7769V23.8066H67.1339V16.2037L61.1456 22.7792L55.3187 16.3799V23.8066H47.2022V0.366932ZM6.98741 2.37909C7.13967 2.07716 7.28404 1.63316 7.43568 1.00044L7.46582 0.874693L7.5344 0.906457C7.57212 0.923926 7.66544 0.97128 7.74178 1.01169C8.27667 1.29487 8.68576 1.58167 9.21515 2.04464C9.71165 2.47884 9.96371 2.7575 10.2421 3.17995C10.3638 3.36472 10.4365 3.49183 10.5288 3.68111C10.6985 4.02939 10.8126 4.38999 10.8734 4.771C11.0152 5.6584 10.8299 6.62871 10.3676 7.41918C10.1575 7.77859 9.90011 8.0975 9.48238 8.51621C9.25844 8.74067 9.16248 8.82499 8.68844 9.21377C8.28948 9.54098 8.02463 9.75109 7.56739 10.1031C7.0248 10.5209 6.95382 10.5801 6.74505 10.7894C6.49499 11.04 6.20495 11.3848 6.05576 11.6089C5.84954 11.9187 5.73722 12.2208 5.6906 12.591C5.67577 12.7088 5.67789 13.0895 5.69405 13.2103C5.77655 13.8271 6.03668 14.3447 6.48287 14.7801C6.77147 15.0617 7.1277 15.2951 7.48554 15.4371C7.81187 15.5665 8.15686 15.639 8.72759 15.698C9.16724 15.7434 9.68127 15.7214 10.0648 15.6406C10.6907 15.5087 11.0209 15.3612 11.4074 15.0407C11.744 14.7616 11.9685 14.4138 12.0649 14.0218C12.1011 13.875 12.1124 13.7891 12.1171 13.626C12.1233 13.4093 12.1042 13.2439 12.0448 13.0003C11.9671 12.6815 11.8526 12.4212 11.676 12.1621L11.619 12.0785L11.6933 12.0049C11.7341 11.9644 11.7939 11.8984 11.8262 11.8583C11.9318 11.727 11.9548 11.6728 11.9097 11.6615C11.8888 11.6562 11.7417 11.6864 11.5711 11.731L11.4323 11.7673L11.2895 11.7706C11.1193 11.7745 10.9118 11.7631 10.7973 11.7436C10.5837 11.707 10.4021 11.6192 10.1511 11.4307C9.94908 11.279 9.8018 11.1085 9.69589 10.9036C9.6657 10.8452 9.61375 10.7234 9.61375 10.711C9.61375 10.6943 9.85502 10.6338 9.99313 10.6158C10.1938 10.5896 10.5054 10.6167 10.9726 10.7009C11.0933 10.7227 11.1252 10.7259 11.2265 10.7259C11.3559 10.7259 11.4219 10.7186 11.5215 10.6936C11.712 10.6458 11.8466 10.5696 12.3149 10.2451C12.8407 9.88073 12.8866 9.85182 13.1121 9.74291C13.248 9.67728 13.3881 9.61935 13.4644 9.59721C13.4977 9.58758 13.5338 9.58377 13.5926 9.58368C13.6628 9.58358 13.6896 9.58727 13.7812 9.60955C13.897 9.63775 13.9977 9.65496 14.2099 9.68284C14.2852 9.69273 14.4085 9.71238 14.4839 9.7265C14.5594 9.74063 14.6547 9.7538 14.6959 9.75578C14.9227 9.76671 15.2408 9.68386 15.4966 9.5472C15.5279 9.53046 15.5679 9.51302 15.5855 9.50843C15.6448 9.49299 15.6842 9.47264 15.6866 9.45623C15.6881 9.44504 15.7041 9.43323 15.7457 9.41244C15.7873 9.39163 15.8084 9.37601 15.824 9.35443C15.9674 9.15616 16.0019 9.11942 16.082 9.07969C16.1405 9.05071 16.146 9.04938 16.2078 9.04944C16.2649 9.0495 16.2769 9.05186 16.3109 9.06972C16.3321 9.08084 16.3649 9.10585 16.3839 9.1253C16.3945 9.13624 16.4022 9.14311 16.4076 9.15149C16.4225 9.17485 16.4192 9.20989 16.4104 9.377C16.4011 9.55136 16.4063 9.5857 16.4542 9.6664C16.4697 9.69253 16.4824 9.71743 16.4824 9.72172C16.4824 9.72601 16.4741 9.73327 16.4641 9.73785C16.4504 9.74408 16.4468 9.74988 16.4499 9.76084C16.4769 9.85871 16.4849 9.92337 16.4845 10.0424C16.4841 10.176 16.4738 10.2648 16.4426 10.4041C16.3886 10.6455 16.2987 10.8652 16.0966 11.2491C15.9677 11.4941 15.7847 11.8587 15.7364 11.9665C15.6482 12.1637 15.5964 12.3344 15.5653 12.5306C15.5421 12.6762 15.5358 12.7728 15.5358 12.9754C15.5359 13.3031 15.5492 13.4262 15.6255 13.8012C15.6546 13.9441 15.6862 14.1074 15.6957 14.1642C15.7804 14.6667 15.8699 15.6489 15.8819 16.2073C15.9045 17.2642 15.6648 17.9664 15.1071 18.477C14.7125 18.8383 14.1554 19.1671 13.621 19.3543C13.5543 19.3777 13.5527 19.3788 13.4991 19.4389C13.1087 19.8761 12.7489 20.3756 12.5146 20.8052C12.3958 21.0232 12.3149 21.2473 12.2725 21.4757C12.2172 21.7734 12.2217 22.1723 12.2839 22.4861C12.312 22.6276 12.3539 22.7348 12.4789 22.9849C12.5815 23.1899 12.5942 23.2027 12.6883 23.1959C12.7178 23.1937 12.7756 23.1835 12.8167 23.1731C13.109 23.0996 13.419 23.1924 13.5125 23.3816C13.5374 23.4321 13.5392 23.4399 13.5392 23.5006C13.5392 23.5593 13.5373 23.5684 13.5199 23.5947C13.497 23.6293 13.4339 23.6633 13.3684 23.6762C13.3142 23.6869 13.141 23.6864 13.0481 23.6753C13.0089 23.6707 12.8856 23.654 12.774 23.6383C12.6429 23.6199 12.5257 23.6078 12.4428 23.6042C12.3153 23.5986 12.2793 23.5911 12.2645 23.5672C12.2617 23.5627 12.2591 23.5378 12.2587 23.5118C12.2581 23.4711 12.2535 23.4554 12.2247 23.3959C12.1578 23.2575 12.0347 23.0752 11.7647 22.7149C11.5415 22.417 11.5032 22.3519 11.4117 22.114C11.2289 21.6387 11.1255 21.2624 11.0699 20.8701C11.0395 20.6555 11.0337 20.5613 11.0338 20.2828C11.034 19.869 11.0635 19.6123 11.1626 19.1616C11.2168 18.9154 11.2517 18.8268 11.3776 18.6161C11.4886 18.4303 11.5149 18.3674 11.4996 18.3237C11.4957 18.3123 11.4837 18.2979 11.473 18.2916C11.4389 18.2715 11.2983 18.2212 11.2646 18.2171C11.2063 18.21 11.171 18.2409 11.1264 18.3379C11.0932 18.4101 11.0811 18.4549 11.0159 18.7487C10.8982 19.2783 10.855 19.4183 10.792 19.4736C10.6648 19.5853 10.4578 19.572 9.91762 19.4174C9.28698 19.2369 8.98042 19.1166 8.47007 18.8497C8.10961 18.6612 7.99276 18.5844 7.79182 18.4041C7.63301 18.2615 7.46433 18.0954 7.28613 17.9062L7.10611 17.715L7.0895 17.7726C7.06287 17.8649 7.01515 17.992 6.88611 18.3145C6.64276 18.9226 6.55918 19.0965 6.40914 19.3067C6.31666 19.4363 6.25324 19.5048 5.84472 19.9162C5.38811 20.376 5.26344 20.5162 5.13325 20.7159C5.02618 20.8802 4.94144 21.1199 4.90126 21.372C4.88224 21.4913 4.87497 21.7494 4.88702 21.8776C4.90669 22.0868 4.94575 22.2627 5.0261 22.5039C5.16367 22.9169 5.24291 23.0783 5.34666 23.1569C5.43705 23.2253 5.53295 23.2339 5.69187 23.1878C5.81274 23.1527 5.86403 23.1509 5.92292 23.1797C6.04405 23.239 6.13317 23.4036 6.13317 23.5681C6.13317 23.7199 6.0354 23.8239 5.84615 23.8735C5.5337 23.9553 5.11501 23.854 4.92464 23.6504C4.83906 23.5589 4.80134 23.4743 4.65644 23.0484C4.51744 22.6399 4.4183 22.3573 4.34808 22.1693C4.25589 21.9225 4.19677 21.7344 4.1232 21.4538C3.98954 20.9442 3.88388 20.3045 3.84865 19.7916C3.8158 19.3133 3.8035 18.802 3.81937 18.5742C3.85358 18.083 3.97083 17.6629 4.20381 17.1968C4.43416 16.736 4.75696 16.2981 5.09145 15.9927C5.32117 15.7829 5.4274 15.699 5.50926 15.6624C5.53511 15.6508 5.55633 15.6395 5.55644 15.6373C5.55655 15.6351 5.49177 15.5771 5.4125 15.5084C5.03664 15.183 4.5565 14.7095 4.22983 14.3422C3.9782 14.0593 3.75953 13.7778 3.56605 13.4879C3.00645 12.6495 2.63456 11.6487 2.51058 10.6475C2.39037 9.67686 2.49105 8.64994 2.79394 7.75732C3.0529 6.99418 3.52083 6.20099 4.121 5.50779C4.32429 5.27299 4.61828 4.97511 4.8624 4.75658C5.60077 4.09562 5.97627 3.7134 6.47427 3.11588C6.74562 2.79029 6.87037 2.61118 6.98741 2.37909ZM15.6234 10.8072C15.6926 10.595 15.7319 10.3979 15.7527 10.1581C15.7552 10.1297 15.7562 10.1066 15.755 10.1066C15.7538 10.1067 15.7064 10.1436 15.6496 10.1887C15.2965 10.4694 14.9896 10.6519 14.5072 10.8681C14.1823 11.0138 13.9135 11.1601 13.6495 11.3351C13.4242 11.4845 13.2698 11.6387 13.1194 11.8645C12.8623 12.2505 12.7655 12.6779 12.8316 13.1354C12.8395 13.1901 12.8474 13.2362 12.8491 13.2379C12.8532 13.242 12.9396 13.1845 13.0231 13.1221C13.1287 13.0432 13.2244 12.9585 13.3519 12.831C13.4164 12.7664 13.4797 12.7081 13.4925 12.7015C13.5189 12.6879 13.5454 12.6916 13.5543 12.7101C13.5576 12.717 13.5604 12.8588 13.5606 13.0252C13.5609 13.3513 13.5624 13.3696 13.6039 13.5342C13.6412 13.6827 13.7301 13.944 13.8135 14.1502C13.9135 14.3977 14.0574 14.694 14.2199 14.9873C14.3832 15.282 14.4737 15.5291 14.5428 15.8692C14.6685 16.487 14.6143 17.1147 14.3854 17.6935C14.2199 18.1118 13.9959 18.4553 13.6602 18.8051C13.621 18.8459 13.5938 18.8765 13.5997 18.8732C13.6056 18.8699 13.6536 18.8383 13.7064 18.8031C14.2336 18.452 14.6644 18.0273 14.9391 17.5884C15.2452 17.099 15.3604 16.6277 15.3486 15.9125C15.3413 15.4707 15.3177 15.3357 15.1052 14.5237C15.002 14.1295 14.9562 13.785 14.9472 13.3349C14.9421 13.0795 14.9578 12.6924 14.9845 12.413C15.0251 11.9892 15.1272 11.6963 15.3561 11.3472C15.4979 11.1309 15.5562 11.0131 15.6234 10.8072ZM7.41642 18.8341C7.46946 18.742 7.48422 18.7215 7.50689 18.7092C7.54778 18.6868 7.5872 18.7046 7.63957 18.7689C7.68314 18.8224 7.73898 18.8659 7.90905 18.9792C8.14161 19.134 8.24406 19.1988 8.37073 19.2715C8.51626 19.355 8.79492 19.4952 8.93081 19.5533C9.04272 19.6012 9.1413 19.6495 9.15999 19.6656C9.17748 19.6807 9.17549 19.7113 9.1543 19.7531C9.14432 19.7728 9.12678 19.8133 9.11532 19.8431C9.09073 19.9069 9.03325 20.0054 8.97348 20.086C8.85885 20.2406 8.68521 20.4026 8.45711 20.5677C8.34526 20.6487 8.26386 20.7176 8.1593 20.8199C7.8677 21.105 7.71321 21.3878 7.66669 21.7216C7.65008 21.8407 7.65542 22.0765 7.67756 22.2013C7.7228 22.4564 7.79273 22.6423 7.93181 22.8774C8.07487 23.1192 8.12385 23.1711 8.22769 23.1914C8.24817 23.1954 8.36903 23.2011 8.49626 23.2041L8.72759 23.2096L8.76666 23.2297C8.84294 23.2689 8.91701 23.3639 8.95125 23.4664C8.97212 23.529 8.97095 23.5632 8.9473 23.5818C8.91243 23.6093 8.88517 23.6112 8.5625 23.6096C8.35551 23.6085 8.21003 23.6111 8.1297 23.6174C8.06314 23.6225 7.97186 23.6254 7.92684 23.6238C7.85541 23.6212 7.84032 23.6184 7.80834 23.6018C7.75747 23.5755 7.73656 23.5464 7.69573 23.4455C7.65765 23.3514 7.56716 23.1669 7.46505 22.9752C7.24178 22.5559 7.08539 22.161 6.99084 21.7777C6.9085 21.444 6.88338 21.1967 6.88968 20.7821C6.89378 20.5122 6.90208 20.4112 6.93799 20.1946C7.0104 19.7579 7.20771 19.1969 7.41642 18.8341ZM14.9128 19.0975C14.9362 19.0842 14.973 19.066 14.9946 19.0571C15.0164 19.0481 15.0492 19.0408 15.0683 19.0407C15.0967 19.0406 15.1061 19.0441 15.1229 19.0608C15.134 19.0719 15.1469 19.0952 15.1517 19.1124C15.1633 19.1551 15.1564 19.3038 15.134 19.4926C15.1132 19.668 15.0915 19.9021 15.0788 20.087C15.0664 20.2674 15.0664 20.9679 15.0788 21.1335C15.107 21.5094 15.1503 21.8242 15.2125 22.1052C15.2953 22.4794 15.4171 22.8235 15.5204 22.9758C15.6369 23.1473 15.8031 23.2711 16.0197 23.3478L16.0944 23.3743L16.1075 23.4196C16.1255 23.4819 16.1266 23.5692 16.1099 23.6125C16.0934 23.6552 16.0441 23.6995 15.9955 23.7151C15.932 23.7356 15.7629 23.7354 15.5072 23.7145C15.1868 23.6884 14.7141 23.6455 14.7107 23.6422C14.7077 23.6393 13.9844 19.6342 13.9842 19.619C13.9841 19.6127 13.9991 19.6101 14.0356 19.61C14.1463 19.6099 14.2748 19.5739 14.3666 19.5173C14.3969 19.4986 14.473 19.4394 14.5357 19.3858C14.6669 19.2735 14.8508 19.1329 14.9128 19.0975Z" fill="white"/>
</svg>
