<svg width="117" height="44" viewBox="0 0 117 44" fill="none" xmlns="http://www.w3.org/2000/svg">
<rect x="1" y="1" width="115" height="42" rx="4" stroke="url(#paint0_linear_33_4737)" stroke-width="2"/>
<path d="M29.05 27V17.2H35.014V18.166H30.226V21.61H34.3V22.562H30.226V27H29.05ZM39.3214 27.168C38.6681 27.168 38.0801 27.0187 37.5574 26.72C37.0347 26.412 36.6241 25.9827 36.3254 25.432C36.0267 24.872 35.8774 24.2233 35.8774 23.486C35.8774 22.73 36.0267 22.0767 36.3254 21.526C36.6334 20.966 37.0487 20.5367 37.5714 20.238C38.1034 19.93 38.6961 19.776 39.3494 19.776C40.0214 19.776 40.6141 19.93 41.1274 20.238C41.6501 20.5367 42.0607 20.966 42.3594 21.526C42.6674 22.0767 42.8214 22.7253 42.8214 23.472C42.8214 24.2187 42.6674 24.872 42.3594 25.432C42.0514 25.9827 41.6361 26.412 41.1134 26.72C40.5907 27.0187 39.9934 27.168 39.3214 27.168ZM39.3354 26.16C39.7367 26.16 40.1101 26.062 40.4554 25.866C40.8007 25.6607 41.0807 25.3573 41.2954 24.956C41.5101 24.5547 41.6174 24.06 41.6174 23.472C41.6174 22.8747 41.5101 22.38 41.2954 21.988C41.0901 21.5867 40.8147 21.288 40.4694 21.092C40.1334 20.8867 39.7601 20.784 39.3494 20.784C38.9574 20.784 38.5841 20.8867 38.2294 21.092C37.8841 21.288 37.6041 21.5867 37.3894 21.988C37.1841 22.38 37.0814 22.8747 37.0814 23.472C37.0814 24.06 37.1841 24.5547 37.3894 24.956C37.6041 25.3573 37.8794 25.6607 38.2154 25.866C38.5607 26.062 38.9341 26.16 39.3354 26.16ZM44.4702 27V16.92H45.6462V27H44.4702ZM47.5874 27V16.92H48.7634V27H47.5874ZM53.8546 27.168C53.2013 27.168 52.6133 27.0187 52.0906 26.72C51.5679 26.412 51.1573 25.9827 50.8586 25.432C50.5599 24.872 50.4106 24.2233 50.4106 23.486C50.4106 22.73 50.5599 22.0767 50.8586 21.526C51.1666 20.966 51.5819 20.5367 52.1046 20.238C52.6366 19.93 53.2293 19.776 53.8826 19.776C54.5546 19.776 55.1473 19.93 55.6606 20.238C56.1833 20.5367 56.5939 20.966 56.8926 21.526C57.2006 22.0767 57.3546 22.7253 57.3546 23.472C57.3546 24.2187 57.2006 24.872 56.8926 25.432C56.5846 25.9827 56.1693 26.412 55.6466 26.72C55.1239 27.0187 54.5266 27.168 53.8546 27.168ZM53.8686 26.16C54.2699 26.16 54.6433 26.062 54.9886 25.866C55.3339 25.6607 55.6139 25.3573 55.8286 24.956C56.0433 24.5547 56.1506 24.06 56.1506 23.472C56.1506 22.8747 56.0433 22.38 55.8286 21.988C55.6233 21.5867 55.3479 21.288 55.0026 21.092C54.6666 20.8867 54.2933 20.784 53.8826 20.784C53.4906 20.784 53.1173 20.8867 52.7626 21.092C52.4173 21.288 52.1373 21.5867 51.9226 21.988C51.7173 22.38 51.6146 22.8747 51.6146 23.472C51.6146 24.06 51.7173 24.5547 51.9226 24.956C52.1373 25.3573 52.4126 25.6607 52.7486 25.866C53.0939 26.062 53.4673 26.16 53.8686 26.16ZM60.1717 27L58.0997 19.944H59.2757L60.8857 25.894H60.6757L62.4257 19.944H63.7557L65.5337 25.88L65.3097 25.894L66.9057 19.944H68.0957L66.0377 27H64.8337L62.9857 20.784H63.2237L61.3757 27H60.1717ZM76.7382 27.168C76.0662 27.168 75.4548 27.0327 74.9042 26.762C74.3628 26.4913 73.9288 26.0807 73.6022 25.53C73.2755 24.97 73.1122 24.256 73.1122 23.388V17.2H74.2882V23.402C74.2882 24.0367 74.3908 24.5547 74.5962 24.956C74.8108 25.3573 75.1048 25.6513 75.4782 25.838C75.8515 26.0247 76.2808 26.118 76.7662 26.118C77.2608 26.118 77.6902 26.0247 78.0542 25.838C78.4182 25.6513 78.7028 25.3573 78.9082 24.956C79.1135 24.5547 79.2162 24.0367 79.2162 23.402V17.2H80.3922V23.388C80.3922 24.256 80.2288 24.97 79.9022 25.53C79.5755 26.0807 79.1368 26.4913 78.5862 26.762C78.0355 27.0327 77.4195 27.168 76.7382 27.168ZM84.9877 27.168C84.409 27.168 83.9003 27.07 83.4617 26.874C83.023 26.678 82.673 26.4073 82.4117 26.062C82.1597 25.7073 82.0057 25.292 81.9497 24.816H83.1537C83.2003 25.0587 83.2983 25.2827 83.4477 25.488C83.597 25.6933 83.7977 25.8613 84.0497 25.992C84.311 26.1133 84.6283 26.174 85.0017 26.174C85.3283 26.174 85.599 26.1273 85.8137 26.034C86.0283 25.9313 86.187 25.796 86.2897 25.628C86.4017 25.46 86.4577 25.278 86.4577 25.082C86.4577 24.7927 86.3877 24.5733 86.2477 24.424C86.117 24.2747 85.921 24.158 85.6597 24.074C85.3983 23.9807 85.081 23.9013 84.7077 23.836C84.3997 23.78 84.0963 23.7053 83.7977 23.612C83.499 23.5187 83.233 23.3973 82.9997 23.248C82.7663 23.0893 82.5797 22.898 82.4397 22.674C82.309 22.45 82.2437 22.1747 82.2437 21.848C82.2437 21.4467 82.3463 21.092 82.5517 20.784C82.7663 20.4667 83.065 20.2193 83.4477 20.042C83.8303 19.8647 84.2783 19.776 84.7917 19.776C85.5477 19.776 86.159 19.958 86.6257 20.322C87.0923 20.686 87.3677 21.2133 87.4517 21.904H86.2897C86.243 21.5493 86.089 21.274 85.8277 21.078C85.5757 20.8727 85.2257 20.77 84.7777 20.77C84.339 20.77 84.003 20.8587 83.7697 21.036C83.5457 21.2133 83.4337 21.4467 83.4337 21.736C83.4337 21.9227 83.4943 22.0907 83.6157 22.24C83.7463 22.38 83.9377 22.5013 84.1897 22.604C84.4417 22.7067 84.745 22.7907 85.0997 22.856C85.5663 22.94 85.991 23.052 86.3737 23.192C86.7563 23.332 87.0643 23.542 87.2977 23.822C87.5403 24.0927 87.6617 24.48 87.6617 24.984C87.6617 25.4227 87.5497 25.8053 87.3257 26.132C87.111 26.4587 86.803 26.7153 86.4017 26.902C86.0003 27.0793 85.529 27.168 84.9877 27.168Z" fill="white"/>
<defs>
<linearGradient id="paint0_linear_33_4737" x1="-2.88171e-07" y1="5" x2="119.915" y2="18.957" gradientUnits="userSpaceOnUse">
<stop stop-color="#FF9898"/>
<stop offset="1" stop-color="#8054FF"/>
</linearGradient>
</defs>
</svg>
