<svg width="41" height="40" viewBox="0 0 41 40" fill="none" xmlns="http://www.w3.org/2000/svg">
<rect x="0.5" width="40" height="40" rx="20" fill="url(#paint0_linear_33_4726)"/>
<path d="M21.5286 10C22.6536 10.003 23.2246 10.009 23.7176 10.023L23.9116 10.03C24.1356 10.038 24.3566 10.048 24.6236 10.06C25.6876 10.11 26.4136 10.278 27.0506 10.525C27.7106 10.779 28.2666 11.123 28.8226 11.678C29.3311 12.1779 29.7245 12.7826 29.9756 13.45C30.2226 14.087 30.3906 14.813 30.4406 15.878C30.4526 16.144 30.4626 16.365 30.4706 16.59L30.4766 16.784C30.4916 17.276 30.4976 17.847 30.4996 18.972L30.5006 19.718V21.028C30.503 21.7574 30.4954 22.4868 30.4776 23.216L30.4716 23.41C30.4636 23.635 30.4536 23.856 30.4416 24.122C30.3916 25.187 30.2216 25.912 29.9756 26.55C29.7253 27.2178 29.3317 27.8226 28.8226 28.322C28.3225 28.8303 27.7179 29.2238 27.0506 29.475C26.4136 29.722 25.6876 29.89 24.6236 29.94C24.3863 29.9512 24.149 29.9612 23.9116 29.97L23.7176 29.976C23.2246 29.99 22.6536 29.997 21.5286 29.999L20.7826 30H19.4736C18.7438 30.0025 18.0141 29.9948 17.2846 29.977L17.0906 29.971C16.8532 29.962 16.6158 29.9517 16.3786 29.94C15.3146 29.89 14.5886 29.722 13.9506 29.475C13.2832 29.2244 12.6788 28.8308 12.1796 28.322C11.6706 27.8223 11.2768 27.2176 11.0256 26.55C10.7786 25.913 10.6106 25.187 10.5606 24.122C10.5494 23.8847 10.5394 23.6474 10.5306 23.41L10.5256 23.216C10.5071 22.4868 10.4988 21.7574 10.5006 21.028V18.972C10.4978 18.2426 10.5051 17.5132 10.5226 16.784L10.5296 16.59C10.5376 16.365 10.5476 16.144 10.5596 15.878C10.6096 14.813 10.7776 14.088 11.0246 13.45C11.2757 12.7819 11.6703 12.177 12.1806 11.678C12.6797 11.1695 13.2837 10.776 13.9506 10.525C14.5886 10.278 15.3136 10.11 16.3786 10.06C16.6446 10.048 16.8666 10.038 17.0906 10.03L17.2846 10.024C18.0138 10.0062 18.7432 9.99857 19.4726 10.001L21.5286 10ZM20.5006 15C19.1745 15 17.9027 15.5268 16.965 16.4645C16.0274 17.4021 15.5006 18.6739 15.5006 20C15.5006 21.3261 16.0274 22.5979 16.965 23.5355C17.9027 24.4732 19.1745 25 20.5006 25C21.8267 25 23.0984 24.4732 24.0361 23.5355C24.9738 22.5979 25.5006 21.3261 25.5006 20C25.5006 18.6739 24.9738 17.4021 24.0361 16.4645C23.0984 15.5268 21.8267 15 20.5006 15ZM20.5006 17C20.8945 16.9999 21.2847 17.0775 21.6487 17.2282C22.0127 17.3789 22.3434 17.5998 22.622 17.8783C22.9007 18.1569 23.1217 18.4875 23.2725 18.8515C23.4233 19.2154 23.501 19.6055 23.5011 19.9995C23.5011 20.3935 23.4236 20.7836 23.2729 21.1476C23.1222 21.5116 22.9013 21.8423 22.6228 22.121C22.3442 22.3996 22.0135 22.6206 21.6496 22.7714C21.2856 22.9223 20.8955 22.9999 20.5016 23C19.7059 23 18.9429 22.6839 18.3803 22.1213C17.8176 21.5587 17.5016 20.7956 17.5016 20C17.5016 19.2044 17.8176 18.4413 18.3803 17.8787C18.9429 17.3161 19.7059 17 20.5016 17M25.7516 13.5C25.4201 13.5 25.1021 13.6317 24.8677 13.8661C24.6333 14.1005 24.5016 14.4185 24.5016 14.75C24.5016 15.0815 24.6333 15.3995 24.8677 15.6339C25.1021 15.8683 25.4201 16 25.7516 16C26.0831 16 26.401 15.8683 26.6355 15.6339C26.8699 15.3995 27.0016 15.0815 27.0016 14.75C27.0016 14.4185 26.8699 14.1005 26.6355 13.8661C26.401 13.6317 26.0831 13.5 25.7516 13.5Z" fill="white"/>
<defs>
<linearGradient id="paint0_linear_33_4726" x1="0.5" y1="4.54546" x2="41.9724" y2="6.36075" gradientUnits="userSpaceOnUse">
<stop stop-color="#FF9898"/>
<stop offset="1" stop-color="#8054FF"/>
</linearGradient>
</defs>
</svg>
