<svg width="41" height="40" viewBox="0 0 41 40" fill="none" xmlns="http://www.w3.org/2000/svg">
<rect x="0.5" width="40" height="40" rx="20" fill="url(#paint0_linear_33_4732)"/>
<path d="M23.6508 16.4004C22.8843 16.3978 22.1249 16.5463 21.4159 16.8375C20.7069 17.1287 20.0623 17.5568 19.519 18.0974C18.9756 18.6379 18.5442 19.2803 18.2493 19.9878C17.9545 20.6953 17.8021 21.454 17.8008 22.2204V28.1004C17.8008 28.3391 17.8956 28.568 18.0644 28.7368C18.2332 28.9056 18.4621 29.0004 18.7008 29.0004H20.8008C21.0395 29.0004 21.2684 28.9056 21.4372 28.7368C21.606 28.568 21.7008 28.3391 21.7008 28.1004V22.2204C21.7006 21.9478 21.7578 21.6782 21.8688 21.4293C21.9798 21.1803 22.142 20.9575 22.3448 20.7754C22.5477 20.5933 22.7867 20.456 23.0461 20.3724C23.3056 20.2889 23.5798 20.2609 23.8508 20.2904C24.3368 20.3516 24.7834 20.5891 25.106 20.9577C25.4286 21.3264 25.6046 21.8006 25.6008 22.2904V28.1004C25.6008 28.3391 25.6956 28.568 25.8644 28.7368C26.0332 28.9056 26.2621 29.0004 26.5008 29.0004H28.6008C28.8395 29.0004 29.0684 28.9056 29.2372 28.7368C29.406 28.568 29.5008 28.3391 29.5008 28.1004V22.2204C29.4995 21.454 29.347 20.6953 29.0522 19.9878C28.7574 19.2803 28.326 18.6379 27.7826 18.0974C27.2393 17.5568 26.5946 17.1287 25.8857 16.8375C25.1767 16.5463 24.4172 16.3978 23.6508 16.4004Z" fill="white"/>
<path d="M15.1 17.2998H12.4C11.9029 17.2998 11.5 17.7027 11.5 18.1998V28.0998C11.5 28.5969 11.9029 28.9998 12.4 28.9998H15.1C15.5971 28.9998 16 28.5969 16 28.0998V18.1998C16 17.7027 15.5971 17.2998 15.1 17.2998Z" fill="white"/>
<path d="M13.75 15.5C14.9926 15.5 16 14.4926 16 13.25C16 12.0074 14.9926 11 13.75 11C12.5074 11 11.5 12.0074 11.5 13.25C11.5 14.4926 12.5074 15.5 13.75 15.5Z" fill="white"/>
<defs>
<linearGradient id="paint0_linear_33_4732" x1="0.5" y1="4.54546" x2="41.9724" y2="6.36075" gradientUnits="userSpaceOnUse">
<stop stop-color="#FF9898"/>
<stop offset="1" stop-color="#8054FF"/>
</linearGradient>
</defs>
</svg>
